<svg xmlns="http://www.w3.org/2000/svg" viewBox="0 0 214.49 211.45"><defs><style>.a,.b{fill:none;}.a,.b,.c{stroke:#000;stroke-miterlimit:10;stroke-width:5px;}.b{stroke-linecap:round;}.c{fill:#fff;}</style></defs><title>prototype</title><path class="a" d="M648.56,360.07a102.9,102.9,0,0,1-2.78,141.76" transform="translate(-463.47 -323.53)"/><path d="M650.83,471.12a1.88,1.88,0,0,1,1.44,2.23l-6,28,28-6.37a1.87,1.87,0,0,1,.83,3.65l-30.84,7a1.87,1.87,0,0,1-2.25-2.22l6.67-30.92a1.89,1.89,0,0,1,2.23-1.44Z" transform="translate(-463.47 -323.53)"/><path class="b" d="M507.14,349.85C523,335.9,542.39,329,563,326.41c32.68-2.74,65.4,9.38,85.52,33.66" transform="translate(-463.47 -323.53)"/><path class="a" d="M496.37,498.9A102.92,102.92,0,0,1,493.8,363" transform="translate(-463.47 -323.53)"/><path d="M491,394.22a1.88,1.88,0,0,1-1.6-2.12l3.95-28.41-27.42,8.44a1.88,1.88,0,0,1-1.1-3.59l30.23-9.3a1.89,1.89,0,0,1,1.77.36,1.87,1.87,0,0,1,.64,1.69l-4.35,31.33a1.88,1.88,0,0,1-.43.95A1.86,1.86,0,0,1,491,394.22Z" transform="translate(-463.47 -323.53)"/><path class="b" d="M635.12,511.24A102.89,102.89,0,0,1,496.37,498.9" transform="translate(-463.47 -323.53)"/><polygon class="a" points="125.03 169.97 48.03 148.97 48.03 71.97 125.03 92.97 125.03 169.97"/><polygon class="a" points="171.03 137.97 94.03 116.97 94.03 39.97 171.03 60.97 171.03 137.97"/><line class="a" x1="48.03" y1="148.97" x2="94.03" y2="116.97"/><line class="a" x1="125.03" y1="92.97" x2="171.03" y2="60.97"/><line class="a" x1="125.03" y1="169.97" x2="171.03" y2="137.97"/><line class="c" x1="48.03" y1="71.97" x2="94.03" y2="39.97"/><circle class="c" cx="125.03" cy="169.97" r="8"/><circle class="c" cx="171.03" cy="137.97" r="8"/><circle class="c" cx="168.03" cy="62.97" r="8"/><circle class="c" cx="94.03" cy="40.97" r="8"/><circle class="c" cx="94.03" cy="117.97" r="8"/><circle class="c" cx="49.03" cy="149.97" r="8"/><circle class="c" cx="49.03" cy="72.97" r="8"/><circle class="c" cx="125.03" cy="92.97" r="8"/></svg>